<?xml version="1.0" standalone="no"?>
<!DOCTYPE svg PUBLIC "-//W3C//DTD SVG 20010904//EN"
 "http://www.w3.org/TR/2001/REC-SVG-20010904/DTD/svg10.dtd">
<svg version="1.0" xmlns="http://www.w3.org/2000/svg"
 width="192.000000pt" height="192.000000pt" viewBox="0 0 192.000000 192.000000"
 preserveAspectRatio="xMidYMid meet">
<metadata>
Created by potrace 1.14, written by Peter Selinger 2001-2017
</metadata>
<g transform="translate(0.000000,192.000000) scale(0.100000,-0.100000)"
fill="#000000" stroke="none">
<path d="M817 1910 c-300 -47 -559 -232 -707 -504 -39 -72 -87 -214 -97 -287
-13 -90 -7 -298 11 -369 9 -36 18 -73 20 -82 3 -9 10 -26 16 -38 7 -12 9 -32
6 -45 -4 -16 1 -27 19 -41 14 -10 25 -23 25 -28 0 -5 24 -45 54 -90 137 -205
351 -350 599 -405 77 -18 238 -23 322 -12 420 59 746 372 821 791 28 154 3
384 -56 516 -19 44 -19 71 1 59 5 -4 9 1 10 9 2 64 1 115 -4 123 -4 6 -29 9
-56 8 -50 -2 -50 -2 -108 64 -144 164 -305 262 -518 316 -73 19 -279 27 -358
15z"/>
</g>
</svg>
